<svg width="240" height="71" viewBox="0 0 240 71" fill="none" xmlns="http://www.w3.org/2000/svg">
<g clip-path="url(#clip0_1_520)">
<path d="M26.3168 11.7879V30.9134H8.74614V11.7879H0.409912V57.4431H8.74839V38.9382H26.3145V57.4431H34.6552V11.7879H26.3168ZM61.3452 42.6866C61.3452 44.5165 60.6182 46.2715 59.3242 47.5655C58.0303 48.8594 56.2753 49.5864 54.4453 49.5864C52.6154 49.5864 50.8604 48.8594 49.5664 47.5655C48.2724 46.2715 47.5455 44.5165 47.5455 42.6866V23.13H39.6358V42.6866C39.6358 46.6104 41.1945 50.3735 43.9691 53.1481C46.7437 55.9227 50.5068 57.4814 54.4306 57.4814C58.3545 57.4814 62.1176 55.9227 64.8922 53.1481C67.6668 50.3735 69.2255 46.6104 69.2255 42.6866V23.13H61.3452V42.6866ZM119.954 25.1453C119.954 21.1351 122.605 19.8646 125.51 19.8646C127.852 19.8646 130.944 21.6474 132.968 23.8093L138.147 17.7027C135.561 14.2048 130.316 11.7879 126.022 11.7879C117.44 11.7879 111.234 16.8136 111.234 25.1453C111.234 40.6036 130.127 35.6976 130.127 44.3497C130.127 47.0172 127.536 49.3731 124.571 49.3731C119.893 49.3731 118.376 47.0871 116.228 44.6679L110.478 50.6459C114.156 55.1593 118.692 57.4521 124.124 57.4521C132.278 57.4521 138.835 52.3655 138.835 44.4129C138.835 27.253 119.94 32.5856 119.94 25.1453M236.837 50.1494C232.163 50.1494 230.834 48.1274 230.834 45.0313V31.3218H238.101V24.3757H230.834V15.2113L222.814 18.8107V46.7351C222.814 53.8775 227.742 57.4769 234.499 57.4769C235.56 57.495 236.62 57.4092 237.663 57.2242L239.619 50.0208C238.737 50.0817 237.724 50.1427 236.837 50.1427M91.454 23.358C87.5363 23.358 84.8012 24.4953 82.1564 27.0883V12.061H74.2354V39.9153C74.2354 50.3413 81.7727 57.486 90.2444 57.486C99.6412 57.486 107.908 50.2149 107.908 40.4253C107.908 30.7577 100.3 23.3647 91.454 23.3647M91.4043 49.5131C90.2238 49.5131 89.0548 49.2805 87.9642 48.8288C86.8735 48.377 85.8825 47.7148 85.0478 46.8801C84.213 46.0453 83.5508 45.0543 83.0991 43.9637C82.6473 42.873 82.4148 41.704 82.4148 40.5235C82.4148 39.343 82.6473 38.174 83.0991 37.0834C83.5508 35.9927 84.213 35.0017 85.0478 34.1669C85.8825 33.3322 86.8735 32.67 87.9642 32.2183C89.0548 31.7665 90.2238 31.534 91.4043 31.534C93.7885 31.534 96.075 32.4811 97.7609 34.1669C99.4467 35.8528 100.394 38.1393 100.394 40.5235C100.394 42.9077 99.4467 45.1942 97.7609 46.8801C96.075 48.5659 93.7885 49.5131 91.4043 49.5131ZM177.479 40.0101C177.479 30.2025 169.231 22.9495 159.816 22.9495C151.347 22.9495 143.807 30.0919 143.807 40.5201V68.3903H151.728V53.3427C154.368 55.9311 157.108 57.073 161.021 57.073C169.867 57.073 177.479 49.68 177.479 40.0101ZM169.978 39.9108C169.978 42.295 169.031 44.5815 167.345 46.2674C165.659 47.9533 163.373 48.9004 160.988 48.9004C158.604 48.9004 156.318 47.9533 154.632 46.2674C152.946 44.5815 151.999 42.295 151.999 39.9108C151.999 37.5266 152.946 35.2401 154.632 33.5543C156.318 31.8684 158.604 30.9213 160.988 30.9213C163.373 30.9213 165.659 31.8684 167.345 33.5543C169.031 35.2401 169.978 37.5266 169.978 39.9108Z" fill="black"/>
<path d="M203.075 22.5659V14.6065C204.126 14.1149 205.017 13.3347 205.643 12.3567C206.268 11.3787 206.603 10.2431 206.609 9.08212V8.89933C206.609 5.51429 203.864 2.77015 200.479 2.77015H200.297C198.671 2.77015 197.112 3.4159 195.963 4.56535C194.813 5.71479 194.167 7.27377 194.167 8.89933V9.08212C194.173 10.2431 194.508 11.3787 195.133 12.3567C195.759 13.3347 196.65 14.1149 197.701 14.6065V22.5659C194.678 23.0287 191.831 24.2821 189.449 26.1991L167.62 9.19721C167.775 8.6353 167.857 8.05758 167.866 7.47761C167.868 6.11165 167.466 4.77558 166.709 3.63839C165.952 2.50121 164.875 1.61401 163.614 1.08901C162.353 0.564005 160.965 0.424794 159.625 0.688982C158.284 0.95317 157.053 1.60889 156.085 2.57319C155.118 3.5375 154.458 4.76706 154.189 6.10637C153.921 7.44567 154.056 8.83454 154.576 10.0973C155.097 11.3601 155.981 12.44 157.116 13.2004C158.25 13.9609 159.585 14.3678 160.951 14.3696C162.146 14.3639 163.319 14.0449 164.352 13.4443L185.847 30.1709C183.916 33.0881 182.909 36.5193 182.956 40.0173C183.004 43.5154 184.104 46.9179 186.113 49.7816L179.576 56.3215C179.047 56.1525 178.497 56.0627 177.942 56.0552C176.821 56.0561 175.725 56.3893 174.793 57.0128C173.861 57.6363 173.135 58.5221 172.706 59.5581C172.277 60.5942 172.165 61.7341 172.384 62.8337C172.603 63.9334 173.143 64.9435 173.936 65.7363C174.729 66.5292 175.739 67.0692 176.839 67.2882C177.938 67.5071 179.078 67.3952 180.114 66.9665C181.151 66.5378 182.036 65.8117 182.66 64.8798C183.283 63.9479 183.616 62.852 183.617 61.7308C183.61 61.176 183.52 60.6253 183.351 60.0969L189.819 53.627C191.928 55.2507 194.381 56.3701 196.989 56.8995C199.598 57.4288 202.293 57.3541 204.868 56.681C207.443 56.0078 209.83 54.7542 211.846 53.0161C213.862 51.278 215.453 49.1015 216.498 46.6535C217.542 44.2054 218.013 41.5507 217.873 38.8927C217.733 36.2346 216.987 33.6439 215.692 31.3188C214.396 28.9938 212.585 26.9961 210.398 25.4789C208.211 23.9618 205.706 22.9653 203.075 22.5659ZM200.394 48.7435C199.198 48.7764 198.009 48.5694 196.895 48.1347C195.781 47.7 194.765 47.0464 193.908 46.2126C193.051 45.3788 192.37 44.3816 191.905 43.28C191.439 42.1785 191.2 40.9949 191.2 39.7991C191.2 38.6034 191.439 37.4197 191.905 36.3182C192.37 35.2166 193.051 34.2195 193.908 33.3856C194.765 32.5518 195.781 31.8983 196.895 31.4635C198.009 31.0288 199.198 30.8218 200.394 30.8547C202.71 30.9358 204.905 31.9129 206.516 33.58C208.126 35.2472 209.027 37.4744 209.028 39.7925C209.029 42.1106 208.131 44.3387 206.522 46.0075C204.913 47.6763 202.719 48.6555 200.403 48.739" fill="black"/>
</g>
<defs>
<clipPath id="clip0_1_520">
<rect width="239.21" height="69.9575" fill="white" transform="translate(0.409912 0.56311)"/>
</clipPath>
</defs>
</svg>
