<svg width="241" height="66" viewBox="0 0 241 66" fill="none" xmlns="http://www.w3.org/2000/svg">
<g clip-path="url(#clip0_1_594)">
<path d="M57.1065 45.2274L57.073 45.1206L78.3421 25.6493V16.2675H44.2193V25.6493H64.601L64.6344 25.7391L43.5732 45.2274V54.6094H78.6847V45.2274H57.1065Z" fill="black"/>
<path d="M99.6294 15.3741C95.6934 15.3741 92.4856 15.9678 90.006 17.155C87.6967 18.1897 85.7509 19.8944 84.4219 22.0481C83.1507 24.216 82.3522 26.6283 82.0795 29.1266L92.433 30.5817C92.8076 28.3757 93.5568 26.8121 94.6801 25.8908C95.9575 24.9271 97.5315 24.4402 99.1294 24.5144C101.231 24.5144 102.755 25.0762 103.703 26.1997C104.641 27.3233 105.118 28.8794 105.118 30.9299V31.9524H95.1634C90.0959 31.9524 86.4556 33.0759 84.2425 35.3231C82.0288 37.5702 80.9242 40.5365 80.928 44.2218C80.928 47.9969 82.0327 50.806 84.2425 52.6484C86.4518 54.4912 89.231 55.4069 92.5794 55.3954C96.7326 55.3954 99.9274 53.9669 102.163 51.1093C103.484 49.353 104.426 47.3429 104.933 45.2049H105.309L106.736 54.5864H116.118V30.8289C116.118 25.9188 114.824 22.1156 112.236 19.419C109.648 16.7225 105.446 15.3741 99.6294 15.3741ZM102.91 44.6599C101.422 45.9014 99.4725 46.5194 97.0455 46.5194C95.0452 46.5194 93.6559 46.1693 92.877 45.4689C92.4976 45.1376 92.1952 44.7267 91.9924 44.2655C91.7895 43.8043 91.6905 43.3041 91.7029 42.8004C91.6805 42.3254 91.7556 41.8508 91.9225 41.4056C92.0895 40.9604 92.3455 40.5538 92.6746 40.2106C93.0306 39.8767 93.4506 39.6185 93.9094 39.4514C94.3682 39.2844 94.8557 39.212 95.3432 39.2387H105.135V39.8848C105.155 40.798 104.965 41.7035 104.579 42.5315C104.193 43.3594 103.622 44.0877 102.91 44.6599Z" fill="black"/>
<path d="M172.843 16.2675H161.759V54.6147H172.843V16.2675Z" fill="black"/>
<path d="M238.281 16.2675C235.151 16.2675 232.682 17.3723 230.877 19.582C229.581 21.17 228.596 23.5164 227.922 26.6211H227.596L226.147 16.2675H216.681V54.6094H227.765V34.9468C227.765 32.4674 228.345 30.5667 229.507 29.2447C230.667 27.9226 232.81 27.2616 235.933 27.2616H240.141V16.2675H238.281Z" fill="black"/>
<path d="M205.692 17.521C203.105 15.9817 199.841 15.2139 195.901 15.2177C189.699 15.2177 184.845 16.9836 181.339 20.5153C177.834 24.047 176.081 28.9158 176.081 35.1217C175.992 38.8736 176.811 42.5914 178.468 45.9584C179.986 48.9588 182.349 51.449 185.266 53.121C188.202 54.818 191.695 55.6681 195.743 55.6715C199.245 55.6715 202.17 55.1323 204.518 54.054C206.726 53.0852 208.649 51.5667 210.102 49.6439C211.487 47.756 212.515 45.6313 213.136 43.3743L203.586 40.7001C203.184 42.1679 202.41 43.5069 201.339 44.5877C200.26 45.6663 198.453 46.2056 195.917 46.2056C192.903 46.2056 190.656 45.3424 189.176 43.6158C188.103 42.3687 187.429 40.5878 187.131 38.2789H213.282C213.389 37.2003 213.445 36.2958 213.445 35.5655V33.1779C213.508 29.9704 212.846 26.7901 211.507 23.8748C210.254 21.219 208.227 19.0042 205.692 17.521ZM195.58 24.3579C200.075 24.3579 202.623 26.5694 203.226 30.9925H187.328C187.58 29.5167 188.192 28.1257 189.109 26.9421C190.566 25.2155 192.723 24.3541 195.58 24.3579Z" fill="black"/>
<path d="M167.42 0.812862C166.586 0.784504 165.755 0.924052 164.976 1.22322C164.197 1.52239 163.487 1.97506 162.886 2.55435C162.295 3.13919 161.831 3.84072 161.524 4.61438C161.217 5.38804 161.075 6.21693 161.106 7.04857C161.076 7.88556 161.219 8.71973 161.525 9.49903C161.832 10.2784 162.297 10.9861 162.889 11.578C163.482 12.17 164.19 12.6335 164.969 12.9396C165.749 13.2458 166.583 13.388 167.42 13.3573C168.251 13.3888 169.081 13.2466 169.855 12.94C170.628 12.6334 171.33 12.169 171.914 11.5765C172.494 10.9778 172.947 10.268 173.245 9.48989C173.543 8.71174 173.681 7.88135 173.65 7.04857C173.688 6.22071 173.554 5.39395 173.254 4.6211C172.955 3.84825 172.498 3.14628 171.913 2.56001C171.327 1.97374 170.625 1.51606 169.853 1.21619C169.08 0.916329 168.253 0.780887 167.426 0.818486L167.42 0.812862Z" fill="black"/>
<path d="M144.526 15.2177C140.751 15.2177 137.718 16.403 135.426 18.7737C133.729 20.5302 132.484 23.1519 131.69 26.6387H131.336L129.886 16.285H120.42V65.6322H131.504V45.3068H131.909C132.247 46.662 132.721 47.9795 133.324 49.2391C134.262 51.2911 135.8 53.011 137.734 54.1716C139.74 55.2663 142 55.8112 144.284 55.7504C148.925 55.7504 152.459 53.9434 154.886 50.329C157.312 46.7149 158.526 41.672 158.526 35.2003C158.526 28.9495 157.352 24.0564 155.003 20.5209C152.655 16.9854 149.163 15.2177 144.526 15.2177ZM145.65 43.0034C144.358 44.876 142.335 45.8124 139.583 45.8124C138.448 45.8647 137.316 45.646 136.283 45.1741C135.249 44.7022 134.343 43.9909 133.639 43.099C132.204 41.2975 131.489 38.8313 131.493 35.7003V34.9699C131.493 31.7902 132.208 29.3558 133.639 27.6667C135.07 25.9777 137.051 25.1425 139.583 25.1612C142.384 25.1612 144.419 26.0507 145.689 27.8296C146.959 29.6086 147.594 32.0899 147.594 35.2733C147.601 38.5653 146.957 41.142 145.661 43.0034H145.65Z" fill="black"/>
<path d="M39.2807 45.2273H0.93335V54.6204H39.2807V45.2273Z" fill="black"/>
</g>
<defs>
<clipPath id="clip0_1_594">
<rect width="239.21" height="65.065" fill="white" transform="translate(0.93335 0.809265)"/>
</clipPath>
</defs>
</svg>
