<svg width="240" height="40" viewBox="0 0 240 40" fill="none" xmlns="http://www.w3.org/2000/svg">
<g clip-path="url(#clip0_1_613)">
<path fill-rule="evenodd" clip-rule="evenodd" d="M64.241 0.105164L43.8105 39.9734H24.66L33.1768 23.4355H32.7829C25.7923 32.5904 15.257 38.5953 0.291016 39.9734V23.6816C0.291016 23.6816 9.8909 23.1402 15.5031 17.1845H0.291016V0.105164H17.3739V14.1821H17.7677L24.7584 0.105164H37.706V14.0837H38.0998L45.2874 0.105164H64.241Z" fill="black"/>
<path d="M175.452 35.5928H180.966V3.99353H175.452V35.5928Z" fill="black"/>
<path fill-rule="evenodd" clip-rule="evenodd" d="M145.126 35.2483C146.308 35.7405 147.539 35.9866 148.769 35.9866C150.837 35.9866 152.658 35.4944 154.234 34.51C155.858 33.5256 157.089 32.1474 157.975 30.3755C158.861 28.6036 159.305 26.6348 159.305 24.3706C159.305 22.1065 158.861 20.1377 157.926 18.3658C156.991 16.5939 155.76 15.2649 154.135 14.2805C152.511 13.2961 150.64 12.8039 148.572 12.8531C147.243 12.8531 146.012 13.0992 144.782 13.6407C143.551 14.1329 142.566 14.8712 141.779 15.8063C141.729 15.8556 141.68 15.954 141.582 16.0032V3.99353H136.068V35.5436H141.532V32.5904C141.68 32.7873 141.828 32.9349 141.975 33.0826C142.862 34.0178 143.895 34.7561 145.126 35.2483ZM150.738 30.1294C149.852 30.6708 148.818 30.9661 147.637 30.9661C146.505 30.9661 145.422 30.6708 144.486 30.1294C143.551 29.5387 142.763 28.7512 142.222 27.7668C141.68 26.7824 141.385 25.6504 141.385 24.3706C141.385 23.0909 141.631 21.9589 142.172 20.9745C142.714 19.9901 143.502 19.2025 144.437 18.6119C145.372 18.0705 146.455 17.7752 147.588 17.7752C148.72 17.7752 149.754 18.0212 150.689 18.5627C151.625 19.1041 152.314 19.8916 152.806 20.876C153.298 21.8604 153.545 22.9925 153.545 24.3214C153.545 25.6011 153.298 26.7332 152.806 27.7668C152.363 28.8004 151.674 29.588 150.738 30.1294Z" fill="black"/>
<path d="M72.2163 5.91315H78.5178L84.13 26.4379L90.1361 5.91315H95.3545L101.853 26.0442L107.268 5.91315H113.028L104.511 35.5928H99.096L92.4991 15.9048L86.4438 35.5928H80.9793L72.2163 5.91315Z" fill="black"/>
<path fill-rule="evenodd" clip-rule="evenodd" d="M122.284 36.085C120.068 36.085 118.099 35.5928 116.376 34.6576C114.604 33.6732 113.274 32.2951 112.241 30.5232C111.256 28.7512 110.764 26.7332 110.764 24.5183C110.764 22.3034 111.256 20.3346 112.29 18.5627C113.324 16.7908 114.702 15.4126 116.425 14.4282C118.197 13.4438 120.117 12.9516 122.284 12.9516C124.696 12.9516 126.813 13.493 128.634 14.5759C130.456 15.6587 131.834 17.1845 132.72 19.1533C133.656 21.1221 133.951 23.3863 133.705 25.8965H116.425C116.474 26.9301 116.721 27.8161 117.164 28.6528C117.656 29.588 118.394 30.2771 119.28 30.7693C120.216 31.2615 121.2 31.5568 122.333 31.5568C123.17 31.5568 124.007 31.4091 124.745 31.1138C125.484 30.8185 126.124 30.4247 126.616 29.9325C127.157 29.4403 127.502 28.8497 127.748 28.259H133.508C133.163 29.7849 132.474 31.163 131.391 32.3935C130.357 33.5748 129.028 34.51 127.453 35.1991C125.927 35.7897 124.204 36.1343 122.284 36.085ZM117.213 20.2854C116.868 20.8268 116.671 21.4667 116.524 22.1065H127.994C127.896 21.2698 127.65 20.5315 127.256 19.8916C126.763 19.1041 126.123 18.4642 125.287 18.0705C124.45 17.6275 123.514 17.3814 122.48 17.3814C121.348 17.3814 120.364 17.6275 119.428 18.1689C118.493 18.6611 117.754 19.3502 117.213 20.2854Z" fill="black"/>
<path d="M163.391 13.3454C163.391 11.5242 163.785 9.94919 164.622 8.57103C165.458 7.14365 166.591 6.06081 168.068 5.27329C169.545 4.48577 171.317 4.09201 173.286 4.04279V8.96479C172.351 8.96479 171.563 9.16167 170.923 9.55543C170.283 9.89997 169.791 10.4414 169.446 11.1305C169.101 11.7703 168.954 12.5086 168.905 13.3454H173.188V18.0213H168.905V35.5929H163.391V18.0213H159.846V13.3454H163.391Z" fill="black"/>
<path fill-rule="evenodd" clip-rule="evenodd" d="M194.947 36.0358C192.683 36.0358 190.713 35.5436 188.941 34.5592C187.169 33.5748 185.79 32.1967 184.806 30.4247C183.821 28.6528 183.329 26.684 183.329 24.4199C183.329 22.1558 183.821 20.187 184.806 18.415C185.79 16.6431 187.218 15.265 188.941 14.2806C190.713 13.2962 192.732 12.804 194.947 12.804C197.212 12.804 199.23 13.2962 201.003 14.2806C202.775 15.265 204.202 16.6431 205.187 18.415C206.172 20.187 206.664 22.205 206.713 24.4199C206.713 26.6348 206.172 28.6528 205.187 30.4247C204.202 32.1967 202.824 33.5256 201.052 34.5592C199.23 35.5436 197.212 36.0358 194.947 36.0358ZM194.947 31.0154C196.129 31.0154 197.163 30.7693 198.098 30.2279C199.033 29.6864 199.723 28.8989 200.215 27.9145C200.707 26.9301 200.953 25.7981 200.953 24.5183C200.953 23.2386 200.707 22.1065 200.215 21.0729C199.723 20.0885 199.033 19.301 198.098 18.7596C197.163 18.2182 196.129 17.9228 194.947 17.9228C193.766 17.9228 192.732 18.2182 191.846 18.7596C190.96 19.301 190.27 20.0393 189.729 21.0729C189.236 22.0573 188.99 23.1894 188.99 24.5183C188.99 25.7981 189.236 26.9301 189.729 27.9145C190.221 28.8989 190.96 29.6864 191.846 30.2279C192.732 30.7201 193.766 31.0154 194.947 31.0154Z" fill="black"/>
<path d="M212.621 13.3453H206.467L213.113 35.5436H218.479L222.861 21.3682L227.587 35.5436H232.854L239.501 13.3453H233.938L230.196 27.1762L226.011 13.3453H220.645L216.51 27.4715L212.621 13.3453Z" fill="black"/>
</g>
<defs>
<clipPath id="clip0_1_613">
<rect width="239.21" height="39.8683" fill="white" transform="translate(0.291016 0.105164)"/>
</clipPath>
</defs>
</svg>
