<svg width="261" height="91" viewBox="0 0 261 91" fill="none" xmlns="http://www.w3.org/2000/svg">
<g clip-path="url(#clip0_1_529)">
<path d="M63.5998 60.8422L62.0422 56.199L60.4848 60.8422H55.5091L59.5762 63.6704L58.0186 68.3134L62.0422 65.4432L66.0659 68.3134L64.5085 63.6704L68.5322 60.7999L63.5998 60.8422ZM58.8838 31.5062L69.008 22.7685L61.9125 16.6481L44.9524 31.295V43.4937L58.8838 31.5062ZM68.9648 42.5652L61.9125 36.4446L44.9524 51.0917V63.2904L58.8838 51.3026L68.9648 42.5652ZM69.7869 43.2826L62.6912 49.4032L79.0455 63.5015V51.3026C79.0889 51.3026 69.7869 43.2826 69.7869 43.2826ZM62.7346 29.5643L79.0889 43.6203V31.4639L69.8301 23.4439L62.7346 29.5643ZM10.7296 47.5882H25.9156V58.1829H10.7296V47.5882ZM10.7296 28.0026H25.9156V38.5974H10.7296V28.0026ZM28.8145 67.216L35.5206 60.6734V47.4193L30.5451 43.0717L35.564 38.8085V25.5122L28.8145 18.9274H1.12463V67.2582L28.8145 67.216ZM112.922 39.7793H98.2986V27.9603H112.966V39.7793H112.922ZM122.571 41.6787V25.5122L115.735 18.9696H88.6505V67.2582H98.2554V48.8124H106.909L113.052 67.216H122.744L116.037 48.0524L122.571 41.6787ZM156.188 39.7793H141.521V27.9603H156.188V39.7793ZM165.793 41.6787V25.5122L158.957 18.9696H131.873V67.2582H141.478V48.8124H150.131L156.274 67.216H165.966L159.26 48.0524L165.793 41.6787ZM186.041 67.2582H195.689V48.0947L211.005 18.9696H200.621L190.843 37.6688L181.195 18.9696H170.855L186.084 48.2635L186.041 67.2582ZM253.924 67.2582L260.673 60.7156V46.7862L255.178 41.0456L236.402 36.8246V28.0026H251.069V34.0387H260.673V25.5122L253.924 18.9696H233.59L226.797 25.5122V39.4416L232.421 45.3088L251.069 49.4032V58.2252H236.402V52.1891H226.797V60.7577L233.59 67.3003L253.924 67.2582ZM224.764 18.9274H217.149L211.568 29.7331H218.274L224.764 18.9274Z" fill="#1A1A19"/>
</g>
<defs>
<clipPath id="clip0_1_529">
<rect width="259.941" height="90.4143" fill="white" transform="translate(0.845337 0.134644)"/>
</clipPath>
</defs>
</svg>
