<svg width="214" height="64" viewBox="0 0 214 64" fill="none" xmlns="http://www.w3.org/2000/svg">
<g clip-path="url(#clip0_1_534)">
<path d="M19.618 21.6394H23.6879V29.2264H9.2122V21.6394H13.2637V17.1943H0.39502V21.6394H4.48958V43.9858H0.39502V48.41H13.2637V43.9858H9.20912V33.6176H23.6849V43.9858H19.618V48.41H32.5174V43.9858H28.4105V21.6394H32.5205V17.1943H19.621M174.848 43.9858H162.164V33.5725H173.075V29.1664H162.162V21.6394H174.944V25.9104H179.438V17.1943H153.147V21.6394H157.436V43.9858H153.147V48.41H179.5V38.0087H174.851M64.8922 38.0087H60.2434V43.9858H47.5596V33.5725H58.4733V29.1664H47.5596V21.6394H60.345V25.9104H64.8399V17.1943H38.5484V21.6394H42.8369V43.9858H38.5453V48.41H64.8922M163.387 15.6534H172.607L170.249 12.9112H160.797M205.142 30.56C201.925 29.6649 199.652 29.8692 196.38 28.803C193.425 27.8358 192.84 26.0637 192.84 24.8893C192.84 23.7089 194.144 20.6483 198.788 20.6483C203.437 20.6483 206.478 23.6459 206.65 26.286L206.669 26.2739V26.286H211.133V17.1852H206.813V19.1676L206.948 19.7864C206.918 19.6963 206.795 19.4468 206.339 19.0054C206.333 18.9963 206.333 18.9904 206.333 18.9813C204.963 17.7799 202.352 16.4704 198.428 16.4704C193.671 16.4704 188.068 19.3478 188.068 24.9104C188.068 30.3317 192.082 32.224 195.487 33.1009C198.898 33.9841 200.638 33.9841 203.483 34.7349C206.322 35.4858 208.162 37.1558 208.162 39.6307C208.162 41.9735 206.684 45.0461 200.675 45.0461C194.656 45.0461 192.28 41.8804 191.583 37.351L191.534 37.3721H187.285V48.4191H191.725V46.3527L191.712 46.3377L191.553 45.791C191.553 45.791 191.712 46.1603 192.218 46.5027L192.261 46.5628C194.508 48.2448 197.458 49.3622 201.238 49.3622C205.456 49.3622 212.838 47.2506 212.838 39.7718C212.827 34.4196 209.913 31.8966 205.142 30.557V30.56ZM134.1 43.9858V48.41H147.153V43.9858H142.874V21.6394H147.153V17.1943H135.485L127.758 35.4377L127.597 36.3328L127.444 35.4227L119.716 17.1913H108.061V21.6364H112.331V43.9829H108.054V48.407H121.099V43.9858H117.019V23.4356L117.05 22.078L117.429 23.1592L126.326 43.9288H128.857L137.785 23.1533L138.111 22.06L138.16 23.2914V43.9858" fill="#1A1A19"/>
<path d="M98.5954 37.6089C98.5954 35.7767 97.3425 33.6142 95.6214 32.599C95.2007 32.3499 94.7265 32.1999 94.2361 32.1605C94.6547 32.1846 95.2213 32.1544 95.7538 31.9382C95.7715 31.9313 95.7903 31.9273 95.8093 31.9262C97.5517 31.1694 99.6638 28.9677 99.6638 25.2583C99.6638 22.516 98.4538 20.3026 96.4003 18.8458C94.4793 17.4882 92.2011 17.1818 89.926 17.1818H72.0084V21.6271H76.0415V44.0184H72.0084V48.4457H84.7323V44.0154H80.7517V34.1518H89.5473C92.5798 34.1879 93.7527 36.1342 93.8143 37.8071L94.036 48.4397H102.828V44.0184H98.7186L98.5954 37.6089ZM90.4987 29.8598H80.7547V21.63H89.9753C90.9296 21.63 92.118 21.6 93.0447 22.0596C94.1776 22.6213 95.2397 23.8317 95.2397 25.808C95.2397 28.0907 93.097 29.8598 90.4987 29.8598Z" fill="#1A1A19"/>
</g>
<defs>
<clipPath id="clip0_1_534">
<rect width="213.694" height="63.7892" fill="white" transform="translate(0.180542 0.134644)"/>
</clipPath>
</defs>
</svg>
