<svg width="191" height="52" viewBox="0 0 191 52" fill="none" xmlns="http://www.w3.org/2000/svg">
<g clip-path="url(#clip0_5_32)">
<path d="M44.8522 35.4991L44.8255 35.4137L61.808 19.8522V12.3542H34.5622V19.8522H50.8362L50.863 19.924L34.0464 35.4991V42.9972H62.0816V35.4991H44.8522Z" fill="white"/>
<path d="M78.8051 11.6404C75.6624 11.6404 73.101 12.1148 71.1211 13.0637C69.2772 13.8906 67.7236 15.253 66.6624 16.9742C65.6475 18.7068 65.0099 20.6347 64.7922 22.6313L73.059 23.7942C73.3581 22.0312 73.9563 20.7816 74.8533 20.0453C75.8732 19.2751 77.13 18.886 78.4059 18.9453C80.0836 18.9453 81.3007 19.3943 82.0574 20.2922C82.8065 21.1901 83.1878 22.4338 83.1878 24.0726V24.8897H75.2391C71.193 24.8897 68.2863 25.7877 66.5192 27.5836C64.7517 29.3795 63.8696 31.7501 63.8727 34.6954C63.8727 37.7125 64.7547 39.9575 66.5192 41.43C68.2833 42.9028 70.5023 43.6346 73.1759 43.6254C76.4921 43.6254 79.0431 42.4837 80.8281 40.1999C81.8825 38.7963 82.6354 37.1899 83.0395 35.4811H83.3402L84.4797 42.9789H91.9707V23.9918C91.9707 20.0677 90.9374 17.0282 88.8712 14.8731C86.8045 12.718 83.4494 11.6404 78.8051 11.6404ZM81.4248 35.0456C80.236 36.0378 78.6798 36.5317 76.7419 36.5317C75.1447 36.5317 74.0354 36.2519 73.4135 35.6921C73.1106 35.4273 72.8692 35.099 72.7072 34.7304C72.5452 34.3618 72.4662 33.962 72.4761 33.5595C72.4581 33.1799 72.5181 32.8006 72.6514 32.4447C72.7847 32.0889 72.9891 31.764 73.2519 31.4897C73.5361 31.2229 73.8715 31.0165 74.2379 30.883C74.6042 30.7495 74.9935 30.6916 75.3827 30.7129H83.2011V31.2293C83.2172 31.9591 83.0651 32.6828 82.7572 33.3445C82.449 34.0062 81.9932 34.5882 81.4248 35.0456Z" fill="white"/>
<path d="M137.264 12.3542H128.413V43.0014H137.264V12.3542Z" fill="white"/>
<path d="M189.514 12.3542C187.014 12.3542 185.043 13.2372 183.602 15.0032C182.567 16.2723 181.78 18.1476 181.242 20.6289H180.982L179.825 12.3542H172.266V42.9972H181.117V27.2828C181.117 25.3013 181.58 23.7822 182.507 22.7256C183.434 21.6691 185.145 21.1408 187.639 21.1408H190.998V12.3542H189.514Z" fill="white"/>
<path d="M163.493 13.3559C161.426 12.1258 158.82 11.5122 155.674 11.5151C150.722 11.5151 146.847 12.9265 144.048 15.749C141.248 18.5716 139.849 22.4627 139.849 27.4224C139.778 30.421 140.432 33.3923 141.755 36.0832C142.967 38.4811 144.854 40.4712 147.183 41.8076C149.527 43.1638 152.316 43.8432 155.548 43.8459C158.345 43.8459 160.68 43.415 162.555 42.5531C164.318 41.7789 165.853 40.5653 167.014 39.0286C168.119 37.5199 168.94 35.8218 169.436 34.0179L161.811 31.8808C161.49 33.0538 160.872 34.1239 160.016 34.9877C159.155 35.8497 157.712 36.2808 155.688 36.2808C153.281 36.2808 151.486 35.5908 150.305 34.211C149.448 33.2142 148.91 31.791 148.672 29.9457H169.553C169.638 29.0837 169.683 28.3608 169.683 27.7771V25.8689C169.733 23.3055 169.204 20.7638 168.135 18.4339C167.135 16.3114 165.516 14.5413 163.493 13.3559ZM155.419 18.82C159.007 18.82 161.042 20.5875 161.523 24.1224H148.829C149.031 22.943 149.519 21.8312 150.251 20.8853C151.414 19.5054 153.137 18.817 155.419 18.82Z" fill="white"/>
<path d="M132.933 0.00287482C132.267 -0.019789 131.604 0.0917376 130.982 0.330834C130.36 0.569931 129.793 0.931706 129.313 1.39467C128.841 1.86208 128.47 2.42274 128.226 3.04105C127.981 3.65936 127.867 4.32181 127.892 4.98646C127.868 5.65538 127.982 6.32205 128.227 6.94487C128.472 7.56772 128.842 8.13334 129.315 8.60642C129.789 9.07951 130.354 9.44993 130.976 9.6946C131.599 9.93927 132.265 10.0529 132.933 10.0284C133.597 10.0536 134.26 9.93995 134.877 9.6949C135.495 9.44989 136.055 9.07874 136.522 8.60516C136.985 8.12668 137.346 7.55946 137.584 6.93756C137.822 6.31567 137.933 5.65202 137.908 4.98646C137.938 4.32483 137.831 3.66409 137.592 3.04642C137.353 2.42876 136.988 1.86774 136.521 1.3992C136.053 0.930651 135.493 0.564869 134.876 0.325217C134.259 0.0855656 133.599 -0.0226801 132.938 0.00736894L132.933 0.00287482Z" fill="white"/>
<path d="M114.653 11.5151C111.639 11.5151 109.217 12.4625 107.387 14.3571C106.032 15.7609 105.038 17.8562 104.404 20.6428H104.121L102.964 12.3682H95.4056V51.8065H104.256V35.5624H104.579C104.849 36.6455 105.228 37.6984 105.709 38.7051C106.458 40.345 107.686 41.7196 109.231 42.6472C110.832 43.522 112.637 43.9575 114.461 43.909C118.166 43.909 120.987 42.4648 122.925 39.5761C124.863 36.6878 125.832 32.6575 125.832 27.4853C125.832 22.4897 124.895 18.5791 123.019 15.7535C121.144 12.9279 118.356 11.5151 114.653 11.5151ZM115.551 33.7215C114.519 35.2182 112.904 35.9665 110.706 35.9665C109.8 36.0083 108.897 35.8335 108.072 35.4564C107.246 35.0792 106.523 34.5107 105.961 33.7979C104.815 32.3582 104.244 30.3872 104.247 27.8849V27.3012C104.247 24.76 104.818 22.8144 105.961 21.4645C107.103 20.1146 108.685 19.447 110.706 19.462C112.943 19.462 114.568 20.1729 115.582 21.5946C116.596 23.0164 117.103 24.9994 117.103 27.5436C117.109 30.1746 116.594 32.2339 115.56 33.7215H115.551Z" fill="white"/>
<path d="M30.6189 35.499H0V43.006H30.6189V35.499Z" fill="white"/>
</g>
<defs>
<clipPath id="clip0_5_32">
<rect width="191" height="52" fill="white"/>
</clipPath>
</defs>
</svg>
