<svg width="284" height="48" viewBox="0 0 284 48" fill="none" xmlns="http://www.w3.org/2000/svg">
<g clip-path="url(#clip0_5_41)">
<path fill-rule="evenodd" clip-rule="evenodd" d="M75.9243 0L51.6682 48H28.9319L39.0434 28.0889H38.5758C30.2762 39.1111 17.7683 46.3407 0 48V28.3852C0 28.3852 11.3974 27.7333 18.0605 20.563H0V0H20.2815V16.9481H20.7491L29.0488 0H44.4207V16.8296H44.8883L53.4217 0H75.9243Z" fill="white"/>
<path d="M207.959 42.726H214.505V4.68152H207.959V42.726Z" fill="white"/>
<path fill-rule="evenodd" clip-rule="evenodd" d="M171.955 42.3111C173.357 42.9037 174.819 43.2 176.28 43.2C178.735 43.2 180.897 42.6074 182.768 41.4223C184.696 40.2371 186.158 38.5778 187.21 36.4445C188.262 34.3111 188.788 31.9408 188.788 29.2148C188.788 26.4889 188.262 24.1186 187.151 21.9852C186.041 19.8519 184.579 18.2519 182.651 17.0667C180.722 15.8815 178.501 15.2889 176.046 15.3482C174.468 15.3482 173.007 15.6445 171.546 16.2963C170.084 16.8889 168.915 17.7778 167.98 18.9037C167.922 18.963 167.863 19.0815 167.746 19.1408V4.68152H161.2V42.6667H167.688V39.1111C167.863 39.3482 168.039 39.526 168.214 39.7037C169.266 40.8297 170.493 41.7186 171.955 42.3111ZM178.618 36.1482C177.566 36.8 176.338 37.1556 174.936 37.1556C173.591 37.1556 172.305 36.8 171.195 36.1482C170.084 35.4371 169.149 34.4889 168.506 33.3037C167.863 32.1186 167.513 30.7556 167.513 29.2148C167.513 27.6741 167.805 26.3111 168.448 25.126C169.091 23.9408 170.026 22.9926 171.136 22.2815C172.247 21.6297 173.533 21.2741 174.877 21.2741C176.221 21.2741 177.449 21.5704 178.559 22.2223C179.67 22.8741 180.488 23.8223 181.073 25.0074C181.657 26.1926 181.949 27.5556 181.949 29.1556C181.949 30.6963 181.657 32.0593 181.073 33.3037C180.547 34.5482 179.728 35.4963 178.618 36.1482Z" fill="white"/>
<path d="M85.3928 6.99255H92.8742L99.5373 31.7037L106.668 6.99255H112.863L120.579 31.2296L127.008 6.99255H133.846L123.735 42.7259H117.306L109.473 19.0222L102.284 42.7259H95.7966L85.3928 6.99255Z" fill="white"/>
<path fill-rule="evenodd" clip-rule="evenodd" d="M144.835 43.3184C142.204 43.3184 139.867 42.7258 137.821 41.5999C135.717 40.4147 134.139 38.7554 132.911 36.6221C131.742 34.4888 131.158 32.0591 131.158 29.3925C131.158 26.7258 131.742 24.3554 132.97 22.2221C134.197 20.0888 135.834 18.4295 137.879 17.2443C139.983 16.0591 142.263 15.4666 144.835 15.4666C147.699 15.4666 150.212 16.1184 152.374 17.4221C154.537 18.7258 156.174 20.5628 157.226 22.9332C158.336 25.3036 158.687 28.0295 158.395 31.0517H137.879C137.938 32.2962 138.23 33.3628 138.756 34.3703C139.34 35.4962 140.217 36.3258 141.269 36.9184C142.38 37.511 143.549 37.8666 144.893 37.8666C145.887 37.8666 146.88 37.6888 147.757 37.3332C148.634 36.9777 149.394 36.5036 149.978 35.911C150.621 35.3184 151.03 34.6073 151.322 33.8962H158.161C157.752 35.7332 156.933 37.3925 155.648 38.874C154.42 40.2962 152.842 41.4221 150.972 42.2517C149.16 42.9629 147.114 43.3777 144.835 43.3184ZM138.814 24.2962C138.405 24.948 138.172 25.7184 137.996 26.4888H151.615C151.498 25.4814 151.205 24.5925 150.738 23.8221C150.153 22.874 149.394 22.1036 148.4 21.6295C147.406 21.0962 146.296 20.7999 145.068 20.7999C143.724 20.7999 142.555 21.0962 141.445 21.748C140.334 22.3406 139.457 23.1703 138.814 24.2962Z" fill="white"/>
<path d="M193.639 15.9407C193.639 13.7481 194.107 11.8518 195.1 10.1926C196.094 8.47406 197.438 7.17035 199.192 6.2222C200.945 5.27406 203.049 4.79998 205.387 4.74072V10.6666C204.277 10.6666 203.341 10.9037 202.582 11.3778C201.822 11.7926 201.237 12.4444 200.828 13.2741C200.419 14.0444 200.244 14.9333 200.185 15.9407H205.27V21.5704H200.185V42.7259H193.639V21.5704H189.431V15.9407H193.639Z" fill="white"/>
<path fill-rule="evenodd" clip-rule="evenodd" d="M231.104 43.2592C228.416 43.2592 226.078 42.6666 223.974 41.4814C221.87 40.2962 220.233 38.637 219.064 36.5036C217.895 34.3703 217.311 31.9999 217.311 29.274C217.311 26.5481 217.895 24.1777 219.064 22.0444C220.233 19.911 221.928 18.2518 223.974 17.0666C226.078 15.8814 228.474 15.2888 231.104 15.2888C233.793 15.2888 236.189 15.8814 238.293 17.0666C240.398 18.2518 242.093 19.911 243.262 22.0444C244.431 24.1777 245.015 26.6073 245.073 29.274C245.073 31.9407 244.431 34.3703 243.262 36.5036C242.093 38.637 240.456 40.237 238.352 41.4814C236.189 42.6666 233.793 43.2592 231.104 43.2592ZM231.104 37.2147C232.507 37.2147 233.735 36.9185 234.845 36.2666C235.956 35.6147 236.774 34.6666 237.358 33.4814C237.943 32.2962 238.235 30.9333 238.235 29.3925C238.235 27.8518 237.943 26.4888 237.358 25.2444C236.774 24.0592 235.956 23.111 234.845 22.4592C233.735 21.8073 232.507 21.4518 231.104 21.4518C229.702 21.4518 228.474 21.8073 227.422 22.4592C226.37 23.111 225.552 23.9999 224.909 25.2444C224.324 26.4296 224.032 27.7925 224.032 29.3925C224.032 30.9333 224.324 32.2962 224.909 33.4814C225.493 34.6666 226.37 35.6147 227.422 36.2666C228.474 36.8592 229.702 37.2147 231.104 37.2147Z" fill="white"/>
<path d="M252.087 15.9407H244.781L252.672 42.6666H259.043L264.245 25.5999L269.856 42.6666H276.11L284 15.9407H277.395L272.953 32.5925L267.985 15.9407H261.614L256.705 32.9481L252.087 15.9407Z" fill="white"/>
</g>
<defs>
<clipPath id="clip0_5_41">
<rect width="284" height="48" fill="white"/>
</clipPath>
</defs>
</svg>
