<svg width="150" height="45" viewBox="0 0 150 45" fill="none" xmlns="http://www.w3.org/2000/svg">
<g clip-path="url(#clip0_11_71)">
<path d="M85.1768 8.89146C85.9739 8.89573 86.7413 8.58801 87.3155 8.0338C87.8874 7.48182 88.2191 6.72614 88.2387 5.93066C88.2293 5.12415 87.9036 4.35374 87.332 3.78586C86.7581 3.21558 85.985 2.89187 85.1768 2.88344C84.3798 2.90203 83.6216 3.23167 83.0636 3.80216C82.5081 4.37041 82.1984 5.13517 82.2018 5.93066C82.2086 6.71507 82.5244 7.46502 83.0804 8.01724C83.6385 8.5718 84.3908 8.88539 85.1768 8.89146ZM105.983 11.7384H113.368V12.3216C112.959 12.3934 112.564 12.5294 112.197 12.7247C111.522 13.039 110.171 14.5626 109.135 17.1159C107.379 21.5525 105.535 26.7931 103.599 32.7991L102.878 35.0766C102.562 36.1061 102.292 36.778 102.157 37.1834C102.022 37.5888 101.841 38.2128 101.528 38.9735C101.349 39.5457 101.119 40.1006 100.841 40.6316C100.48 41.3035 99.8045 42.6815 99.2646 43.0959C98.4085 43.8134 97.1476 44.6195 95.5732 44.4853C92.5113 44.4853 90.2158 42.2077 90.1701 39.5134C90.1701 37.6752 91.3417 36.4659 93.0971 36.4659C94.358 36.4659 95.4816 37.1492 95.4816 38.5704C95.4816 39.6022 94.4473 40.6771 94.4473 41.2148C94.4473 42.6038 95.2575 43.2643 96.8342 43.2643C98.0928 43.2643 99.1226 42.4582 99.8938 40.8456C100.931 39.0076 101.02 36.9922 100.164 34.7509L93.6829 17.6805C92.1955 13.7383 91.0696 12.4424 89.6757 12.3035V11.7201H99.8938V12.303C98.6786 12.4375 98.0494 13.1549 98.0494 14.4529C98.0494 15.3936 98.4085 16.8285 99.0836 18.6665L100.299 21.9807C101.695 25.5653 102.816 28.7015 103.407 30.674C104.711 26.597 105.924 23.0122 107.098 19.876C107.954 17.5459 108.359 15.8881 108.359 14.9018C108.359 13.1549 107.414 12.3488 105.972 12.3488L105.983 11.7384ZM34.8945 33.5597C33.5902 33.3321 32.4643 32.1704 32.4643 29.7061V0L25.0358 1.61261V2.2413C26.2967 2.10676 27.553 3.22496 27.553 5.60053V29.7061C27.553 32.0361 26.2921 33.3799 25.0358 33.5597C24.9178 33.5804 24.7983 33.5949 24.6787 33.6029C24.0358 33.647 23.3918 33.5337 22.8023 33.2728C21.8045 32.84 20.9716 32.0679 20.2665 30.9156L16.8341 25.4493C16.1101 24.2964 15.034 23.4085 13.7659 22.9178C12.4949 22.4251 11.0995 22.3544 9.78537 22.7162L13.6575 18.4597C16.5821 15.2348 19.2849 13.1736 21.8502 12.3218V11.7382H13.3327V12.3213C15.5386 13.173 15.4035 15.0545 12.875 18.0153L7.42849 24.3306V0L0 1.61261V2.2413C1.26093 2.2413 2.51721 3.49377 2.51721 5.68927V29.7061C2.51721 32.3505 1.30224 33.3799 0 33.5597V34.1429H9.86773V33.5597C8.24768 33.3321 7.43752 32.0817 7.43752 29.7061V25.2716L9.55198 22.9418L14.6737 31.3187C15.8889 33.3365 17.0148 34.1429 18.8158 34.1429H35.9564V33.6873C35.9564 33.6873 35.4666 33.6531 34.8945 33.5597ZM55.3446 30.7265V20.7052C55.246 14.1528 52.4861 11.1692 46.1654 11.1692C44.1474 11.1536 42.1824 11.8158 40.5839 13.0501C38.9179 14.3052 38.1077 15.7401 38.1077 17.3982C38.1077 19.0108 39.0072 20.2201 40.4923 20.2201C42.0692 20.2201 43.1951 19.3249 43.1951 18.0701C43.1951 17.1294 42.5633 15.8291 42.5633 14.9339C42.5633 13.3192 43.7809 11.9299 45.8954 11.9299C48.5982 11.9299 50.5319 13.9479 50.5319 18.4277V21.1152L48.2822 21.6526C47.1106 21.8803 46.122 22.1082 45.3552 22.3359C44.5887 22.5636 43.6002 22.8735 42.4283 23.3198C40.0872 24.2173 38.8286 25.069 37.7463 26.6816C37.2164 27.461 36.934 28.3827 36.9361 29.3258C36.9361 33.0428 39.5471 34.7465 43.1951 34.7465C46.0761 34.7465 49.145 33.2226 50.5319 30.3552C50.5518 31.2597 50.7694 32.1489 51.1704 32.9608C52.6967 36.0354 57.7521 34.2179 57.7521 34.2179V33.635C55.539 33.9789 55.3559 31.3596 55.3446 30.7265ZM50.5386 27.6244C50.5386 29.1025 49.9985 30.312 48.9186 31.1637C47.8841 32.0157 46.8039 32.4643 45.678 32.4643C43.4719 32.4643 42.0302 31.0294 42.0302 28.385C42.0302 27.1326 42.7167 25.9663 43.2911 25.2946C43.7464 24.8305 44.2803 24.4511 44.8678 24.1738C45.6323 23.7708 46.012 23.5635 46.5338 23.3221L48.5935 22.5615C49.6278 22.1584 50.2572 21.9351 50.5273 21.8009L50.5386 27.6244ZM150 11.7384H132.491V0H150L146.325 5.86934L150 11.7384ZM114.41 31.2913C113.332 30.1885 112.483 28.8836 111.91 27.4512C111.337 26.0188 111.052 24.4872 111.071 22.9441C111.047 21.4084 111.33 19.8833 111.903 18.4587C112.477 17.0317 113.33 15.7335 114.41 14.64C116.618 12.3079 119.323 11.1395 122.481 11.1395C125.591 11.1395 128.299 12.3079 130.507 14.64C131.602 15.7248 132.466 17.0204 133.048 18.4489C133.63 19.8748 133.916 21.4041 133.889 22.9441C133.912 24.49 133.624 26.0247 133.043 27.457C132.461 28.8919 131.599 30.1956 130.507 31.2913C128.299 33.5688 125.591 34.7465 122.481 34.7465C119.323 34.7465 116.618 33.5802 114.41 31.2913ZM126.539 15.0136C125.648 13.2804 124.479 12.2647 123.106 11.9912C120.321 11.4334 117.858 14.2824 116.941 18.8126C116.549 20.8447 116.454 22.923 116.659 24.9824C116.861 27.0434 117.436 29.0503 118.357 30.9042C119.25 32.6397 120.417 33.6531 121.79 33.9263C124.575 34.4844 127.108 31.5145 128.033 26.9388C128.8 23.1149 128.411 18.4574 126.527 15.0112L126.539 15.0136Z" fill="white"/>
<path d="M87.788 29.7061V11.7384H71.9404V12.2784C74.0571 12.5927 75.064 14.1826 74.1031 16.7605C69.1508 30.157 69.4665 29.5558 69.1508 30.6308C68.835 29.599 68.1139 27.0643 66.9447 23.8846C65.7751 20.7052 65.0086 18.5963 64.6929 17.6556C63.4776 13.9363 63.8827 12.5469 65.8645 12.3239V11.7408H55.5984V12.3239C57.1293 12.6383 58.4796 14.3849 59.6055 17.5211L61.1822 21.598C62.9145 26.0028 64.9492 32.0747 65.6287 34.1452H69.0408C70.1393 30.9565 74.5469 18.2318 75.1373 16.9382C75.7735 15.4645 76.4943 14.3484 77.3001 13.5764C77.6895 13.1604 78.1628 12.8321 78.6885 12.6134C79.2154 12.3942 79.7825 12.2893 80.3528 12.3056C80.3528 12.3056 82.8266 12.3056 82.8266 14.6811V29.7061C82.8266 32.2115 81.6114 33.3799 80.3504 33.5597V34.1429H90.1657V33.5597C88.8682 33.3799 87.788 32.2159 87.788 29.7061Z" fill="white"/>
</g>
<defs>
<clipPath id="clip0_11_71">
<rect width="150" height="44.5" fill="white"/>
</clipPath>
</defs>
</svg>
