<svg width="116" height="49" viewBox="0 0 116 49" fill="none" xmlns="http://www.w3.org/2000/svg">
<path fill-rule="evenodd" clip-rule="evenodd" d="M115.385 24.9883C115.385 16.7617 111.41 10.2705 103.814 10.2705C96.1859 10.2705 91.5705 16.7617 91.5705 24.924C91.5705 34.5966 97.0192 39.4811 104.84 39.4811C108.654 39.4811 111.538 38.6134 113.718 37.3923V30.9653C111.538 32.0579 109.038 32.7328 105.865 32.7328C102.756 32.7328 100 31.6402 99.6474 27.8483H115.321C115.321 27.4305 115.385 25.7595 115.385 24.9883ZM99.5513 21.9355C99.5513 18.3042 101.763 16.7939 103.782 16.7939C105.737 16.7939 107.821 18.3042 107.821 21.9355H99.5513Z" fill="black"/>
<path fill-rule="evenodd" clip-rule="evenodd" d="M79.1987 10.2705C76.0577 10.2705 74.0385 11.7487 72.9167 12.777L72.5 10.7847H65.4487V48.2539L73.4616 46.5507L73.4936 37.4566C74.6474 38.2921 76.3462 39.4811 79.1667 39.4811C84.9039 39.4811 90.1282 34.8537 90.1282 24.6669C90.0962 15.3478 84.8077 10.2705 79.1987 10.2705ZM77.2757 32.4114C75.3846 32.4114 74.2628 31.7366 73.4936 30.9011L73.4616 18.979C74.2949 18.0471 75.4487 17.4044 77.2757 17.4044C80.1923 17.4044 82.2115 20.6822 82.2115 24.8919C82.2115 29.1979 80.2244 32.4114 77.2757 32.4114Z" fill="black"/>
<path fill-rule="evenodd" clip-rule="evenodd" d="M54.4231 8.37456L62.468 6.63928V0.115906L54.4231 1.81905V8.37456Z" fill="black"/>
<path d="M62.468 10.8168H54.4231V38.9348H62.468V10.8168Z" fill="black"/>
<path fill-rule="evenodd" clip-rule="evenodd" d="M45.8013 13.1948L45.2885 10.8168H38.3654V38.9348H46.3782V19.8788C48.2692 17.4044 51.4744 17.8543 52.468 18.2078V10.8168C51.4423 10.4312 47.6923 9.7242 45.8013 13.1948Z" fill="black"/>
<path fill-rule="evenodd" clip-rule="evenodd" d="M29.7756 3.84357L21.9551 5.51458L21.9231 31.2546C21.9231 36.0105 25.4808 39.5132 30.2244 39.5132C32.8526 39.5132 34.7756 39.0312 35.8333 38.4528V31.9294C34.8077 32.3472 29.7436 33.8254 29.7436 29.0694V17.6615H35.8333V10.8168H29.7436L29.7756 3.84357Z" fill="black"/>
<path fill-rule="evenodd" clip-rule="evenodd" d="M8.10898 18.979C8.10898 17.7258 9.13462 17.2438 10.8333 17.2438C13.2692 17.2438 16.3462 17.9829 18.7821 19.3004V11.7487C16.1218 10.6883 13.4936 10.2705 10.8333 10.2705C4.32692 10.2705 0 13.6768 0 19.3647C0 28.2339 12.1795 26.8199 12.1795 30.644C12.1795 32.1222 10.8974 32.6042 9.10256 32.6042C6.44231 32.6042 3.04487 31.5116 0.352564 30.0334V37.6815C3.33333 38.9669 6.34615 39.5132 9.10256 39.5132C15.7692 39.5132 20.3526 36.2033 20.3526 30.4512C20.3205 20.875 8.10898 22.5781 8.10898 18.979Z" fill="black"/>
</svg>
