<svg width="120" height="13" viewBox="0 0 120 13" fill="none" xmlns="http://www.w3.org/2000/svg">
<path d="M37.5783 2.88049C35.6237 2.88049 34.1752 4.46374 34.1752 6.57005C34.1537 7.0463 34.2293 7.52194 34.3975 7.96825C34.5656 8.41455 34.8229 8.82225 35.1537 9.16668C35.4845 9.51111 35.882 9.78514 36.3221 9.97219C36.7622 10.1592 37.2358 10.2554 37.7143 10.2549C38.2803 10.2609 38.8405 10.1407 39.3539 9.90315C39.8673 9.66558 40.3209 9.31664 40.6815 8.88187L40.269 8.51291C40.188 8.43637 40.0806 8.39371 39.969 8.39371C39.8573 8.39371 39.75 8.43637 39.669 8.51291C39.1479 8.98716 38.4669 9.24889 37.7612 9.24615C36.4955 9.24615 35.3705 8.42418 35.3705 6.57005C35.3705 4.71593 36.4299 3.88928 37.5783 3.88928C37.8702 3.88901 38.1591 3.94764 38.4275 4.06163C38.696 4.17563 38.9386 4.34262 39.1405 4.55255C39.3424 4.76247 39.4996 5.01098 39.6025 5.28307C39.7054 5.55517 39.7519 5.84521 39.7393 6.13571H36.7815C36.6572 6.13571 36.5379 6.18492 36.45 6.2725C36.3621 6.36009 36.3127 6.47888 36.3127 6.60275V7.03709H40.269C40.3481 7.03713 40.4265 7.02131 40.4994 6.99058C40.5723 6.95984 40.6383 6.91482 40.6934 6.85818C40.7485 6.80154 40.7916 6.73445 40.8201 6.66088C40.8487 6.58731 40.8621 6.50878 40.8596 6.42994C40.7799 4.25824 39.4018 2.88049 37.5783 2.88049Z" fill="white"/>
<path d="M55.1237 2.9272C54.2142 2.93356 53.3182 3.14597 52.5033 3.54836L52.733 4.07143C52.749 4.12924 52.7771 4.18298 52.8156 4.22905C52.8541 4.27512 52.902 4.31246 52.9562 4.33856C53.0103 4.36465 53.0695 4.37891 53.1296 4.38036C53.1898 4.38182 53.2495 4.37043 53.3049 4.34698C53.8541 4.12887 54.4388 4.01331 55.0299 4.00605C56.3424 4.00605 57.0549 4.64588 57.0549 5.83682V7.50879C57.0549 8.53627 56.0658 9.31621 54.7768 9.31621C53.9518 9.31621 53.0752 8.90522 53.0752 7.98984C53.0752 7.07445 53.8112 6.58874 55.0533 6.58874H55.6721C55.7964 6.58874 55.9156 6.53953 56.0036 6.45195C56.0915 6.36436 56.1408 6.24557 56.1408 6.12171V5.6827H54.9455C53.0424 5.6827 51.8893 6.5327 51.8893 8.01786C51.8893 9.50303 53.2721 10.2596 54.5565 10.2596C55.0211 10.2744 55.4831 10.1856 55.9089 9.99979C56.3346 9.81395 56.7133 9.53573 57.0174 9.18544V9.65248C57.0174 9.77634 57.0668 9.89513 57.1547 9.98272C57.2426 10.0703 57.3618 10.1195 57.4862 10.1195H58.1518V5.79945C58.1565 3.93132 57.0783 2.9272 55.1237 2.9272Z" fill="white"/>
<path d="M24.7627 0.545334H24.0737V1.23187C24.0737 1.35574 24.1231 1.47453 24.211 1.56211C24.2989 1.6497 24.4181 1.69891 24.5424 1.69891H25.2315V1.00303C25.229 0.880787 25.1786 0.764381 25.0909 0.678805C25.0033 0.59323 24.8854 0.545309 24.7627 0.545334Z" fill="white"/>
<path d="M89.5721 0.545334H88.883V1.23187C88.883 1.35574 88.9324 1.47453 89.0203 1.56211C89.1082 1.6497 89.2275 1.69891 89.3518 1.69891H90.0408V1.00303C90.0384 0.880787 89.9879 0.764381 89.9003 0.678805C89.8126 0.59323 89.6948 0.545309 89.5721 0.545334Z" fill="white"/>
<path d="M16.5127 8.42417C16.0228 8.90861 15.3653 9.18771 14.6752 9.20412C14.3346 9.19632 13.9989 9.12108 13.6878 8.9828C13.3766 8.84451 13.0962 8.64593 12.8628 8.39862C12.6294 8.15131 12.4477 7.86021 12.3284 7.54227C12.209 7.22433 12.1543 6.88591 12.1674 6.5467C12.153 6.21462 12.2049 5.883 12.3203 5.57111C12.4356 5.25922 12.6121 4.97329 12.8393 4.72993C13.0665 4.48658 13.3401 4.29065 13.644 4.15355C13.9479 4.01645 14.2761 3.94091 14.6096 3.93132C15.2937 3.94351 15.9454 4.22372 16.4237 4.71126C16.4661 4.75058 16.5159 4.78117 16.5702 4.80128C16.6246 4.82138 16.6823 4.83062 16.7402 4.82845C16.7981 4.82628 16.8551 4.81275 16.9077 4.78863C16.9604 4.76452 17.0077 4.73029 17.0471 4.68791L17.5158 4.18352C17.1594 3.76273 16.7141 3.42563 16.2117 3.19634C15.7093 2.96704 15.1622 2.85121 14.6096 2.85714C13.625 2.85714 12.6807 3.24685 11.9845 3.94053C11.2882 4.6342 10.8971 5.57503 10.8971 6.55604C10.8971 7.53705 11.2882 8.47788 11.9845 9.17156C12.6807 9.86524 13.625 10.2549 14.6096 10.2549C15.1731 10.2534 15.7293 10.1268 16.2376 9.88446C16.746 9.64212 17.1938 9.29007 17.5487 8.85385L17.1127 8.44286C17.0307 8.37029 16.9257 8.32868 16.8161 8.32527C16.7065 8.32186 16.5991 8.35686 16.5127 8.42417Z" fill="white"/>
<path d="M32.1877 3.61374L30.1159 8.53627L28.0487 3.61374C27.9763 3.44344 27.8548 3.29838 27.6996 3.19694C27.5444 3.09551 27.3624 3.04226 27.1768 3.04396H26.5346L29.4034 9.66182C29.4566 9.80482 29.5526 9.92816 29.6783 10.0153C29.8039 10.1024 29.9534 10.149 30.1065 10.149C30.2596 10.149 30.409 10.1024 30.5347 10.0153C30.6604 9.92816 30.7563 9.80482 30.8096 9.66182L33.7018 3.04396H33.083C32.8935 3.03754 32.7064 3.08857 32.5466 3.1903C32.3867 3.29203 32.2616 3.43967 32.1877 3.61374Z" fill="white"/>
<path d="M21.9362 3.04395H20.1877V1.00302C20.1877 0.879156 20.1383 0.760364 20.0504 0.672778C19.9625 0.585193 19.8433 0.535988 19.719 0.535988H19.0393V8.24203C19.0343 8.50225 19.081 8.76088 19.1767 9.00307C19.2723 9.24525 19.4151 9.46621 19.5967 9.65326C19.7784 9.84031 19.9953 9.98976 20.2351 10.093C20.4749 10.1963 20.7328 10.2513 20.994 10.2549C21.4827 10.2691 21.9668 10.1581 22.4002 9.93269V8.88187C22.064 9.04732 21.6968 9.14117 21.3221 9.15742C21.1715 9.18044 21.0176 9.16781 20.8729 9.12056C20.7281 9.07331 20.5965 8.99277 20.4888 8.88544C20.3811 8.77812 20.3003 8.64704 20.2528 8.5028C20.2054 8.35857 20.1927 8.20524 20.2158 8.05522V4.07143H22.4237V3.50165C22.4225 3.4395 22.4088 3.37822 22.3836 3.32139C22.3583 3.26457 22.3219 3.21334 22.2765 3.17071C22.2311 3.12808 22.1776 3.09491 22.1191 3.07315C22.0607 3.05138 21.9985 3.04146 21.9362 3.04395Z" fill="white"/>
<path d="M24.7627 3.04395H24.0737V9.66181C24.0679 9.72458 24.0761 9.78784 24.0976 9.84711C24.1191 9.90639 24.1534 9.96021 24.1982 10.0048C24.2429 10.0494 24.2969 10.0836 24.3564 10.105C24.4159 10.1264 24.4794 10.1346 24.5424 10.1288H25.2315V3.50165C25.229 3.37941 25.1786 3.263 25.0909 3.17743C25.0033 3.09185 24.8854 3.04393 24.7627 3.04395Z" fill="white"/>
<path d="M49.883 8.07857C49.1497 8.78752 48.1674 9.18302 47.1455 9.18077C45.1252 9.18077 43.5643 7.48544 43.5643 5.33241C43.5643 3.17939 45.1018 1.53077 47.1455 1.53077C48.1292 1.54959 49.0742 1.9153 49.8127 2.56291C49.9042 2.63291 50.0184 2.66685 50.1334 2.65824C50.2484 2.64962 50.3562 2.59905 50.4362 2.51621L50.9377 1.98846C50.4531 1.48689 49.8701 1.08999 49.225 0.822444C48.5799 0.554897 47.8864 0.422416 47.1877 0.433238C46.538 0.424669 45.8933 0.547489 45.2926 0.794268C44.6919 1.04105 44.1477 1.40666 43.6928 1.86899C43.238 2.33132 42.882 2.88077 42.6464 3.48409C42.4108 4.08742 42.3005 4.73209 42.3221 5.37912C42.3 6.02007 42.4081 6.65887 42.64 7.25714C42.8719 7.85541 43.2228 8.40081 43.6715 8.86058C44.1203 9.32036 44.6577 9.68501 45.2515 9.93265C45.8452 10.1803 46.4831 10.3058 47.1268 10.3016C47.8544 10.3092 48.5751 10.1613 49.2405 9.86808C49.906 9.57485 50.5007 9.14302 50.9846 8.60165L50.5158 8.13461C50.4367 8.04782 50.3277 7.99387 50.2104 7.98349C50.0932 7.9731 49.9763 8.00705 49.883 8.07857Z" fill="white"/>
<path d="M68.0471 2.88049C67.5567 2.8697 67.0721 2.98686 66.6412 3.22035C66.2103 3.45384 65.8482 3.79554 65.5908 4.21153C65.3808 3.79913 65.0572 3.4549 64.6579 3.21916C64.2585 2.98342 63.8001 2.86595 63.3361 2.88049C62.9025 2.87438 62.4745 2.97836 62.0923 3.18263C61.7101 3.38689 61.3865 3.68473 61.1518 4.04807V3.50165C61.1518 3.37778 61.1024 3.25899 61.0145 3.1714C60.9266 3.08382 60.8073 3.03461 60.683 3.03461H59.994V10.1195H60.683C60.8073 10.1195 60.9266 10.0703 61.0145 9.98271C61.1024 9.89513 61.1518 9.77633 61.1518 9.65247V6.08901C61.1518 4.85137 61.9346 3.95934 63.0268 3.95934C64.119 3.95934 64.7658 4.71593 64.7658 5.97225V9.66181C64.7658 9.78568 64.8152 9.90447 64.9031 9.99205C64.991 10.0796 65.1103 10.1288 65.2346 10.1288H65.9236V6.04231C65.9236 4.59917 66.8611 3.95934 67.7986 3.95934C68.9049 3.95934 69.5471 4.69258 69.5471 5.9956V9.66181C69.5471 9.78568 69.5965 9.90447 69.6844 9.99205C69.7723 10.0796 69.8915 10.1288 70.0158 10.1288H70.7049V5.7434C70.6815 3.98269 69.669 2.88049 68.0471 2.88049Z" fill="white"/>
<path d="M76.358 2.8805C75.8387 2.87807 75.327 3.00497 74.8694 3.24965C74.4117 3.49434 74.0228 3.84906 73.7377 4.2816V3.50165C73.7377 3.37779 73.6883 3.25899 73.6004 3.17141C73.5125 3.08382 73.3933 3.03462 73.269 3.03462H72.5799V11.8335C72.5799 11.9574 72.6293 12.0762 72.7172 12.1638C72.8051 12.2513 72.9243 12.3006 73.0486 12.3006H73.7377V8.90522C74.0313 9.32561 74.4234 9.66827 74.8801 9.90348C75.3367 10.1387 75.844 10.2593 76.358 10.2549C78.0127 10.2549 79.7611 8.95193 79.7611 6.57006C79.7611 4.18819 77.9893 2.8805 76.358 2.8805ZM76.1752 9.20412C75.8387 9.19642 75.5071 9.12166 75.2 8.98426C74.893 8.84687 74.6166 8.64961 74.3873 8.40413C74.1579 8.15864 73.9802 7.86989 73.8646 7.5549C73.749 7.2399 73.6979 6.90504 73.7143 6.57006C73.6973 6.23469 73.7479 5.89933 73.8632 5.58379C73.9785 5.26825 74.1561 4.97894 74.3855 4.73295C74.6149 4.48696 74.8915 4.28928 75.1989 4.15159C75.5063 4.01391 75.8383 3.93901 76.1752 3.93132C77.5533 3.93132 78.5658 5.0522 78.5658 6.56539C78.5658 8.07857 77.5768 9.20412 76.1752 9.20412Z" fill="white"/>
<path d="M89.5487 3.04395H88.8596V9.66181C88.8596 9.78568 88.909 9.90447 88.9969 9.99205C89.0848 10.0796 89.204 10.1288 89.3283 10.1288H90.0174V3.50165C90.0149 3.37941 89.9645 3.263 89.8768 3.17743C89.7892 3.09185 89.6714 3.04393 89.5487 3.04395Z" fill="white"/>
<path d="M97.6393 3.50165V4.16483C97.2893 3.7188 96.8313 3.36862 96.3083 3.14711C95.7854 2.92561 95.2145 2.84002 94.6493 2.89838C94.0841 2.95675 93.543 3.15714 93.0767 3.48079C92.6104 3.80444 92.2343 4.24075 91.9835 4.74881C91.7327 5.25687 91.6155 5.82005 91.6429 6.38558C91.6703 6.9511 91.8413 7.50044 92.14 7.9821C92.4387 8.46377 92.8552 8.86199 93.3505 9.13944C93.8459 9.4169 94.4038 9.56449 94.9721 9.5684C95.4928 9.57362 96.0071 9.45366 96.4714 9.2187C96.9357 8.98374 97.3363 8.64071 97.6393 8.21868V8.85851C97.6393 10.3951 96.744 11.2637 95.1596 11.2637C94.3318 11.2633 93.5203 11.0337 92.8158 10.6005C92.766 10.5661 92.7094 10.5427 92.6497 10.5321C92.59 10.5214 92.5287 10.5237 92.47 10.5387C92.4112 10.5538 92.3565 10.5813 92.3094 10.6194C92.2623 10.6575 92.224 10.7052 92.1971 10.7593L91.8971 11.2871C92.8637 11.9449 94.0078 12.295 95.1783 12.2912C97.4799 12.2912 98.7877 11.0349 98.7877 8.83516V3.04395H98.0987C97.9776 3.04634 97.8621 3.09533 97.7765 3.18065C97.6908 3.26597 97.6417 3.38101 97.6393 3.50165ZM95.1361 8.53626C94.8257 8.54598 94.5166 8.49223 94.2278 8.37832C93.939 8.26441 93.6768 8.09275 93.4571 7.87394C93.2375 7.65513 93.0653 7.39381 92.9509 7.1061C92.8366 6.81839 92.7826 6.51039 92.7924 6.2011C92.785 5.89458 92.841 5.58983 92.9568 5.30577C93.0726 5.0217 93.2457 4.76438 93.4655 4.54979C93.6853 4.33519 93.947 4.16789 94.2344 4.05829C94.5218 3.94868 94.8287 3.8991 95.1361 3.91263C95.4545 3.88786 95.7745 3.92895 96.0761 4.0333C96.3777 4.13766 96.6544 4.30304 96.8888 4.51905C97.1232 4.73505 97.3102 4.99703 97.4382 5.2885C97.5661 5.57997 97.6321 5.89465 97.6321 6.21277C97.6321 6.53089 97.5661 6.84557 97.4382 7.13704C97.3102 7.42852 97.1232 7.69049 96.8888 7.9065C96.6544 8.1225 96.3777 8.28788 96.0761 8.39224C95.7745 8.4966 95.4545 8.53768 95.1361 8.51291V8.53626Z" fill="white"/>
<path d="M104.164 2.88049C103.702 2.86454 103.243 2.96796 102.832 3.18071C102.422 3.39346 102.073 3.70833 101.821 4.09478V3.50165C101.821 3.37778 101.771 3.25899 101.683 3.1714C101.595 3.08382 101.476 3.03461 101.352 3.03461H100.663V10.1195H101.352C101.476 10.1195 101.595 10.0703 101.683 9.98271C101.771 9.89513 101.821 9.77634 101.821 9.65247V6.05632C101.802 5.78252 101.841 5.50793 101.935 5.25004C102.03 4.99215 102.177 4.75661 102.367 4.55845C102.558 4.36029 102.787 4.20385 103.042 4.09909C103.297 3.99433 103.57 3.94355 103.846 3.95C105.017 3.95 105.721 4.70659 105.721 5.98626V9.65247C105.721 9.77634 105.77 9.89513 105.858 9.98271C105.946 10.0703 106.065 10.1195 106.189 10.1195H106.878V5.72005C106.902 4.00604 105.842 2.88049 104.164 2.88049Z" fill="white"/>
<path d="M118.85 5.42583L111.641 0.750824V1.68489C111.641 1.83789 111.678 1.98861 111.75 2.12379C111.822 2.25898 111.926 2.37448 112.053 2.46016L118.006 6.42061L112.053 10.3624C111.928 10.4467 111.825 10.56 111.753 10.6925C111.681 10.8251 111.643 10.973 111.641 11.1236V12.1091L118.855 7.39203C119.016 7.28178 119.148 7.13481 119.24 6.96338C119.332 6.79195 119.382 6.60104 119.385 6.40659C119.386 6.21151 119.337 6.01932 119.244 5.84786C119.15 5.6764 119.015 5.53123 118.85 5.42583Z" fill="white"/>
<path d="M114.416 6.73351C114.574 6.83414 114.758 6.88761 114.946 6.88761C115.133 6.88761 115.317 6.83414 115.475 6.73351L115.981 6.39258L112.231 3.84725C112.176 3.81034 112.112 3.78893 112.046 3.78525C111.979 3.78156 111.913 3.79576 111.854 3.82633C111.795 3.85691 111.746 3.90274 111.711 3.95901C111.675 4.01528 111.656 4.07993 111.655 4.14615V4.90275L113.61 6.20577L114.416 6.73351Z" fill="white"/>
<path d="M84.0362 2.9272C83.1267 2.9329 82.2305 3.14535 81.4158 3.54836L81.6408 4.07143C81.6568 4.12924 81.6849 4.18298 81.7234 4.22905C81.7619 4.27512 81.8098 4.31246 81.864 4.33856C81.9182 4.36465 81.9773 4.37891 82.0374 4.38036C82.0976 4.38182 82.1573 4.37043 82.2127 4.34698C82.7619 4.12887 83.3466 4.01331 83.9377 4.00605C85.2455 4.00605 85.958 4.64588 85.958 5.83682V7.50879C85.958 8.53627 84.9737 9.31621 83.6846 9.31621C82.8549 9.31621 81.983 8.90522 81.983 7.98984C81.983 7.07445 82.719 6.58874 83.9612 6.58874H84.5799C84.7042 6.58874 84.8235 6.53953 84.9114 6.45195C84.9993 6.36436 85.0487 6.24557 85.0487 6.12171V5.6827H83.8533C81.9455 5.6827 80.7971 6.5327 80.7971 8.01786C80.7971 9.50303 82.1752 10.2596 83.4643 10.2596C83.9282 10.2744 84.3895 10.1856 84.8145 9.9997C85.2395 9.81384 85.6174 9.53563 85.9205 9.18544V9.65248C85.9205 9.77634 85.9699 9.89513 86.0578 9.98272C86.1457 10.0703 86.265 10.1195 86.3893 10.1195H87.0549V5.79945C87.069 3.93132 85.9862 2.9272 84.0362 2.9272Z" fill="white"/>
<path d="M5.70335 0.545331C5.54174 0.520777 5.37663 0.554268 5.23753 0.639823C5.09842 0.725377 4.99437 0.857421 4.94397 1.01236L0.790848 10.1195H1.41428C1.59622 10.1155 1.77361 10.0621 1.92727 9.96497C2.08094 9.86784 2.20504 9.73071 2.28616 9.56841L3.15803 7.66758H6.43928C6.56361 7.66758 6.68283 7.61838 6.77074 7.53079C6.85865 7.44321 6.90803 7.32442 6.90803 7.20055V6.57006H3.62678L5.70335 1.98846L9.06428 9.53572C9.13358 9.70644 9.25199 9.85294 9.40461 9.95681C9.55724 10.0607 9.73728 10.1173 9.9221 10.1195H10.5877L6.46741 1.02637C6.41189 0.872948 6.30661 0.742344 6.16823 0.655221C6.02985 0.568098 5.86626 0.52943 5.70335 0.545331Z" fill="white"/>
</svg>
