<svg width="150" height="35" viewBox="0 0 150 35" fill="none" xmlns="http://www.w3.org/2000/svg">
<g clip-path="url(#clip0_11_253)">
<path d="M51.62 12.0093C51.62 11.2937 51.068 10.7065 50.2953 10.7065C49.5226 10.7065 48.9706 11.2937 48.9706 12.0093V22.5785C48.9706 23.2942 49.5226 23.8814 50.2953 23.8814C51.0864 23.8814 51.62 23.2942 51.62 22.5785V12.0093Z" fill="white"/>
<path d="M64.6652 10.7065C63.8925 10.7065 63.3588 11.2937 63.3588 12.0093V16.5233L63.4324 20.5602L61.8317 16.7801L59.7343 12.4864C59.0904 11.1469 58.3545 10.7065 57.3057 10.7065C55.7603 10.7065 55.0795 11.679 55.0795 13.0736V22.5785C55.0795 23.2942 55.613 23.8814 56.3859 23.8814C57.1586 23.8814 57.6921 23.2942 57.6921 22.5785L57.6737 18.1197L57.6185 13.5507L59.3296 17.7343L61.4454 22.1014C62.1078 23.4959 62.807 23.8998 63.874 23.8998C65.2539 23.8998 65.9714 23.0556 65.9714 21.496V12.0093C65.9714 11.2937 65.4379 10.7065 64.6652 10.7065Z" fill="white"/>
<path d="M75.7401 13.4039L78.739 13.4773C79.4382 13.4957 79.9902 12.9635 79.9902 12.1929C79.9902 11.4222 79.4382 10.8901 78.739 10.8901L70.0548 10.8717C69.3742 10.8717 68.8038 11.4038 68.8038 12.1745C68.8038 12.9452 69.3742 13.4773 70.0548 13.459L73.0723 13.4039V22.5785C73.0723 23.2942 73.6241 23.8814 74.397 23.8814C75.1881 23.8814 75.7401 23.2942 75.7401 22.5785V13.4039Z" fill="white"/>
<path d="M84.6307 23.7162H91.0885C91.7693 23.7162 92.3213 23.2024 92.3213 22.4867C92.3213 21.7528 91.7693 21.239 91.0885 21.239L85.477 21.2574V18.193H90.3341C90.9966 18.193 91.5301 17.6975 91.5301 17.0187C91.5301 16.3214 90.9966 15.8259 90.3341 15.8259L85.477 15.8626V13.3305H91.0885C91.7693 13.3305 92.3213 12.8167 92.3213 12.0827C92.3213 11.3488 91.7693 10.8533 91.0885 10.8533L84.649 10.8717C83.4715 10.8717 82.8092 11.5322 82.8092 12.7066V21.8813C82.8092 23.0556 83.4715 23.7162 84.6307 23.7162Z" fill="white"/>
<path d="M102.84 18.4867C104.588 18.028 105.618 16.6701 105.618 14.8719C105.618 12.8718 104.312 10.8717 101.184 10.8717H97.1363C95.9589 10.8717 95.2965 11.5323 95.2965 12.7066V22.5785C95.2965 23.2942 95.8485 23.8814 96.6581 23.8814C97.4491 23.8814 98.0195 23.2942 98.0195 22.5785L98.0011 19.1288H100.227L102.49 23.2024C102.858 23.8264 103.631 24.0832 104.349 23.7162C105.066 23.3309 105.269 22.5602 104.882 21.9364L102.84 18.4867ZM98.0011 13.3122H101.202C102.288 13.3122 102.969 13.9911 102.969 15.0003C102.969 15.9912 102.325 16.7252 101.239 16.7252H98.0011V13.3122Z" fill="white"/>
<path d="M113.744 23.9547C116.431 23.9547 118.16 22.7437 118.749 20.7803C119.062 19.661 118.399 18.8537 117.406 18.8537C116.799 18.8537 116.394 19.1656 116.155 19.8445C115.787 20.8721 114.885 21.5144 113.597 21.5144C111.555 21.5144 110.672 20.1381 110.672 17.2756C110.672 14.4682 111.573 13.1287 113.597 13.1287C114.867 13.1287 115.603 13.6608 116.063 14.8902C116.32 15.5875 116.743 15.8994 117.369 15.8994C118.326 15.8994 119.025 15.1288 118.73 14.0645C118.142 11.8993 116.431 10.6882 113.671 10.6882C109.881 10.6882 107.949 13.0002 107.949 17.2756C107.949 21.5877 109.881 23.9547 113.744 23.9547Z" fill="white"/>
<path d="M126.825 23.9181C130.726 23.9181 132.657 21.5326 132.657 17.2755C132.657 12.9819 130.67 10.6148 126.825 10.6148C122.961 10.6148 121.03 13.0186 121.011 17.2755C121.011 21.5509 122.98 23.9181 126.825 23.9181ZM126.825 21.4593C124.654 21.4593 123.716 20.0831 123.716 17.2755C123.716 14.4315 124.673 13.0553 126.807 13.0553C128.959 13.0553 129.971 14.4315 129.953 17.2755C129.953 20.1013 128.996 21.4593 126.825 21.4593Z" fill="white"/>
<path d="M149.785 13.0002C149.785 11.5507 148.883 10.6882 147.485 10.6882C146.344 10.6882 145.48 11.3121 145.056 12.7434L143.64 17.349L142.701 20.6702L141.8 17.349L140.291 12.7434C139.868 11.4039 139.132 10.6882 137.844 10.6882C136.427 10.6882 135.544 11.5323 135.544 13.0002V22.5785C135.544 23.2942 136.059 23.8814 136.814 23.8814C137.568 23.8814 138.083 23.2942 138.083 22.5785L138.065 17.9546L137.936 13.0002L139.39 18.0647L140.935 22.5418C141.266 23.5327 141.892 23.8631 142.701 23.8631C143.456 23.8631 144.063 23.5878 144.376 22.5785L145.848 18.0647L147.411 12.9636L147.264 17.9546V22.5785C147.264 23.2942 147.798 23.8814 148.534 23.8814C149.288 23.8814 149.803 23.2942 149.803 22.5785L149.785 13.0002Z" fill="white"/>
<path d="M29.7812 19.0095C29.7812 19.3154 29.6607 19.6086 29.4462 19.8248C29.2316 20.041 28.9407 20.1626 28.6372 20.1626C28.3337 20.1626 28.0428 20.041 27.8282 19.8248C27.6137 19.6086 27.4932 19.3154 27.4932 19.0095V8.7092C27.4932 8.40342 27.6137 8.11016 27.8282 7.89394C28.0428 7.67772 28.3337 7.55624 28.6372 7.55624C28.9407 7.55624 29.2316 7.67772 29.4462 7.89394C29.6607 8.11016 29.7812 8.40342 29.7812 8.7092V19.0095ZM29.3841 26.1465C29.2328 26.2989 24.9784 29.8721 17.1785 29.8721C9.37872 29.8721 5.15261 26.318 4.97299 26.1654C4.85979 26.0693 4.76654 25.9515 4.6986 25.8189C4.63065 25.6862 4.58934 25.5415 4.57705 25.3927C4.56475 25.2441 4.58169 25.0944 4.62694 24.9522C4.67216 24.8102 4.74478 24.6784 4.84062 24.5646C5.03807 24.3344 5.31784 24.1923 5.61892 24.1689C5.92 24.1458 6.21797 24.2436 6.44786 24.4408C6.51405 24.4885 10.3147 27.5947 17.1691 27.5947C24.0235 27.5947 27.8525 24.4694 27.8904 24.4408C28.1228 24.2452 28.4218 24.1488 28.7236 24.1719C29.0255 24.1951 29.3066 24.3359 29.507 24.5646C29.6998 24.7915 29.7961 25.0859 29.7749 25.3838C29.7537 25.6817 29.6166 25.9593 29.3935 26.1559L29.3841 26.1465ZM4.56645 8.7092C4.58355 8.40246 4.72044 8.11499 4.9472 7.90967C5.17396 7.70433 5.47216 7.59783 5.77661 7.61341C6.05884 7.62957 6.32515 7.75047 6.52417 7.95282C6.7232 8.15516 6.84084 8.42462 6.8544 8.7092V18.9905C6.8544 19.2963 6.73387 19.5895 6.51934 19.8057C6.3048 20.022 6.01383 20.1435 5.71043 20.1435C5.40703 20.1435 5.11605 20.022 4.90151 19.8057C4.68698 19.5895 4.56645 19.2963 4.56645 18.9905V8.7092ZM10.3052 6.42235C10.3223 6.11559 10.4592 5.82814 10.686 5.62282C10.9127 5.41749 11.2109 5.31098 11.5154 5.32657C11.7976 5.34273 12.0639 5.46363 12.263 5.66597C12.462 5.86831 12.5796 6.13776 12.5932 6.42235V21.668C12.5932 21.9738 12.4727 22.2671 12.2581 22.4833C12.0436 22.6995 11.7526 22.8209 11.4492 22.8209C11.1458 22.8209 10.8548 22.6995 10.6403 22.4833C10.4258 22.2671 10.3052 21.9738 10.3052 21.668V6.42235ZM16.0724 5.85063C16.0724 5.54486 16.1929 5.2516 16.4075 5.03538C16.622 4.81916 16.913 4.69768 17.2163 4.69768C17.5198 4.69768 17.8107 4.81916 18.0253 5.03538C18.2398 5.2516 18.3603 5.54486 18.3603 5.85063V22.4303C18.3603 22.736 18.2398 23.0293 18.0253 23.2456C17.8107 23.4618 17.5198 23.5832 17.2163 23.5832C16.913 23.5832 16.622 23.4618 16.4075 23.2456C16.1929 23.0293 16.0724 22.736 16.0724 22.4303V5.85063ZM21.745 6.42235C21.745 6.11657 21.8655 5.82331 22.0801 5.60708C22.2946 5.39087 22.5856 5.2694 22.8889 5.2694C23.1924 5.2694 23.4833 5.39087 23.6979 5.60708C23.9124 5.82331 24.0329 6.11657 24.0329 6.42235V21.668C24.0329 21.9738 23.9124 22.2671 23.6979 22.4833C23.4833 22.6995 23.1924 22.8209 22.8889 22.8209C22.5856 22.8209 22.2946 22.6995 22.0801 22.4833C21.8655 22.2671 21.745 21.9738 21.745 21.668V6.42235ZM30.0931 0.133518H4.30172C3.73974 0.129753 3.18254 0.237745 2.66204 0.451309C2.14152 0.664873 1.66792 0.979817 1.26834 1.37811C0.86876 1.7764 0.551055 2.2502 0.333415 2.77242C0.115775 3.29462 0.00247428 3.85496 0 4.42136V30.1485C0.00247428 30.7148 0.115775 31.2752 0.333415 31.7974C0.551055 32.3195 0.86876 32.7934 1.26834 33.1917C1.66792 33.5899 2.14152 33.9049 2.66204 34.1184C3.18254 34.3321 3.73974 34.4399 4.30172 34.4362H30.0931C30.6543 34.4399 31.2108 34.3324 31.7306 34.1193C32.2506 33.9064 32.7238 33.5923 33.1232 33.195C33.5227 32.7978 33.8406 32.3251 34.0587 31.8039C34.277 31.2829 34.3912 30.7235 34.3948 30.1579V4.42136C34.3924 3.85577 34.2794 3.29621 34.0623 2.77463C33.8454 2.25304 33.5285 1.77966 33.1298 1.38149C32.7313 0.983327 32.2589 0.668184 31.7394 0.454057C31.22 0.239929 30.6638 0.13101 30.1026 0.133518" fill="white"/>
</g>
<defs>
<clipPath id="clip0_11_253">
<rect width="150" height="34.3029" fill="white" transform="translate(0 0.133423)"/>
</clipPath>
</defs>
</svg>
